<svg width="288" height="127" viewBox="0 0 288 127" fill="none" xmlns="http://www.w3.org/2000/svg">
<path d="M46.3697 122.5L2.36966 77.5C0.369629 74 -1.73035 62.9 5.86965 56.5C13.4697 50.1 23.5363 52.8333 26.8697 55.5L69.8697 98.5C73.3697 102.5 76.8697 113 68.3697 121C60.5321 128.377 48.8697 125 46.3697 122.5Z" fill="#FFC857"/>
<path d="M128.37 87.5V13C128.37 9 134.37 0.5 144.37 0.5C154.37 0.5 160.37 9 160.37 13V87.5C160.37 91.5 154.37 99.5 144.37 99.5C134.37 99.5 128.37 91.5 128.37 87.5Z" fill="#FFC857"/>
<path d="M260.87 55.5L215.87 100.5C213.37 104 212.77 115.4 218.37 121C223.97 126.6 235.37 127 239.37 123.5L284.87 77C287.37 74.5 289.07 63.9 281.87 57.5C274.67 51.1 264.37 52.5 260.87 55.5Z" fill="#FFC857"/>
<path d="M46.3697 122.5L2.36966 77.5C0.369629 74 -1.73035 62.9 5.86965 56.5C13.4697 50.1 23.5363 52.8333 26.8697 55.5L69.8697 98.5C73.3697 102.5 76.8697 113 68.3697 121C60.5321 128.377 48.8697 125 46.3697 122.5Z" stroke="#FFC857"/>
<path d="M128.37 87.5V13C128.37 9 134.37 0.5 144.37 0.5C154.37 0.5 160.37 9 160.37 13V87.5C160.37 91.5 154.37 99.5 144.37 99.5C134.37 99.5 128.37 91.5 128.37 87.5Z" stroke="#FFC857"/>
<path d="M260.87 55.5L215.87 100.5C213.37 104 212.77 115.4 218.37 121C223.97 126.6 235.37 127 239.37 123.5L284.87 77C287.37 74.5 289.07 63.9 281.87 57.5C274.67 51.1 264.37 52.5 260.87 55.5Z" stroke="#FFC857"/>
</svg>
