<svg width="905" height="721" viewBox="0 0 905 721" fill="none" xmlns="http://www.w3.org/2000/svg">
<path d="M1 621.531V586.531L46 610.531L443 659.031L753 622.031L903.5 588.031L904.5 611.031C898.5 673.431 848.667 683.698 824.5 681.031C661.3 637.831 547.167 678.031 510.5 703.531C465.3 733.931 415.333 716.198 396 703.531C299.6 643.131 154.167 661.698 93.5 678.531C29.1 691.731 5 646.031 1 621.531Z" fill="#4BB8A2" stroke="#4BB8A2"/>
<path d="M0.5 589.031V92.5312C6.1 54.5312 35.1667 43.0312 49 42.0312L400 128.031L856.5 41.0312C884.9 43.0312 900 75.5312 904 91.5312V589.531C896.4 651.531 844.167 658.698 819 654.531C658.6 610.131 540.833 654.365 502 682.031C462.4 705.231 421.167 691.698 405.5 682.031C304.3 616.031 150.667 635.865 86.5 654.031C21.3 663.231 2 614.531 0.5 589.031Z" fill="#6FCFBD" stroke="#6FCFBD"/>
<path d="M44.5 576.531V46.031C44.5 19.231 115.5 6.53099 151 3.53101C364.807 -17.8996 447.466 81.3864 450.473 84.9989L450.5 85.031C452.5 87.431 457.333 86.031 459.5 85.031C576.3 -21.769 746.167 -5.13569 816.5 16.531C847.3 20.931 858.333 38.3643 860 46.531V579.031C850.4 605.031 817 596.864 801.5 589.531C580.5 530.031 461.5 643.031 457.5 647.031C454.3 650.231 450.167 648.364 448.5 647.031C338.5 544.631 165.667 568.364 93 593.031C88.5 595.364 76.4 599.531 64 597.531C51.6 595.531 45.8333 582.698 44.5 576.531Z" fill="#FDFDFD" stroke="#FDFDFD"/>
<path d="M373.5 250.031H126.5C116 255.031 116.5 269.531 126.5 274.031H374.5C386.5 267.031 383.5 253.531 373.5 250.031Z" fill="#D8CFC5" stroke="#D8CFC5"/>
<path d="M373.189 423.531H126.189C115.689 428.531 116.189 443.031 126.189 447.531H374.189C386.189 440.531 383.189 427.031 373.189 423.531Z" fill="#D8CFC5" stroke="#D8CFC5"/>
<path d="M373.189 336.531H126.189C115.689 341.531 116.189 356.031 126.189 360.531H374.189C386.189 353.531 383.189 340.031 373.189 336.531Z" fill="#D8CFC5" stroke="#D8CFC5"/>
<path d="M451 649.531V85.5312C453 87.5312 456.833 86.3646 458.5 85.5312V649.531H451Z" fill="#F7EFE6" stroke="#F7EFE6"/>
<path d="M149.5 179.682V3.18158C187.1 -1.61842 241.833 1.18158 264.5 3.18158V179.682C261.3 188.482 252.167 186.682 248 184.682C237.167 176.182 214.7 158.582 211.5 156.182C208.3 153.782 204.167 155.182 202.5 156.182L172.5 179.682C157.7 191.282 151 184.515 149.5 179.682Z" fill="#7FD7C5" stroke="#7FD7C5"/>
<path d="M527.562 540.435C514.362 547.635 512.062 537.435 512.562 531.435L518.882 491.935L532.562 406.435L687.074 164.935L704.349 137.935L727.062 102.435C745.862 78.4345 772.562 85.1012 783.562 91.4345L804.562 106.935C826.962 125.735 823.229 152.101 818.562 162.935L793.883 201.935L777.062 228.517L625.562 467.935L557.976 517.935L527.562 540.435Z" fill="#4BB9A3" stroke="#4BB9A3"/>
<path d="M557.562 518.435C547.162 501.635 527.562 493.768 519.062 491.935L512.562 532.935C512.562 545.335 521.562 543.768 526.062 541.435L557.562 518.435Z" fill="#615E5A" stroke="#615E5A"/>
<path d="M532.208 406.081C533.317 404.972 536.58 403.111 541.152 403.942L541.151 403.943C543.768 404.217 549.524 406.033 558.216 410.528C566.969 415.055 578.741 422.319 593.355 433.529C597.881 436.549 604.035 441.559 609.229 446.057C611.831 448.31 614.198 450.439 616.004 452.132C616.908 452.978 617.673 453.718 618.259 454.31C618.836 454.892 619.264 455.357 619.469 455.645C620.141 456.584 621.871 458.586 623.228 460.88C624.587 463.176 625.698 465.953 625.047 468.556L625.003 468.73L624.859 468.837L557.859 518.337L557.371 518.698L557.11 518.148C554.175 511.953 542.497 497.883 519.437 491.919L519 491.806L519.068 491.359L532.068 406.359L532.092 406.197L532.208 406.081Z" fill="#FEE3BA" stroke="#FEE3BA"/>
<path d="M744.062 198.935C714.862 176.935 693.667 167.101 687 164.935L703.562 138.935C707.162 137.735 713.062 140.101 715.562 141.435C718.395 143.101 729.662 150.135 752.062 164.935C774.462 179.735 790 196.5 794.5 202.5L777.179 229.224C777.155 229.351 777.093 229.442 777 229.5L777.179 229.224C777.511 227.522 771.23 219.404 744.062 198.935Z" fill="#FEFEFE"/>
<path d="M687 164.935C693.667 167.101 714.862 176.935 744.062 198.935C773.262 220.935 778.333 228.667 777 229.5L794.5 202.5C790 196.5 774.462 179.735 752.062 164.935C729.662 150.135 718.395 143.101 715.562 141.435C713.062 140.101 707.162 137.735 703.562 138.935L687 164.935Z" stroke="#FEFEFE"/>
</svg>
