<svg width="905" height="721" viewBox="0 0 905 721" fill="none" xmlns="http://www.w3.org/2000/svg">
<path d="M1 621.531V586.531L46 610.531L443 659.031L753 622.031L903.5 588.031L904.5 611.031C898.5 673.431 848.667 683.698 824.5 681.031C661.3 637.831 547.167 678.031 510.5 703.531C465.3 733.931 415.333 716.198 396 703.531C299.6 643.131 154.167 661.698 93.5 678.531C29.1 691.731 5 646.031 1 621.531Z" fill="#4BB8A2" stroke="#4BB8A2"/>
<path d="M0.5 589.031V92.5312C6.1 54.5312 35.1667 43.0312 49 42.0312L400 128.031L856.5 41.0312C884.9 43.0312 900 75.5312 904 91.5312V589.531C896.4 651.531 844.167 658.698 819 654.531C658.6 610.131 540.833 654.365 502 682.031C462.4 705.231 421.167 691.698 405.5 682.031C304.3 616.031 150.667 635.865 86.5 654.031C21.3 663.231 2 614.531 0.5 589.031Z" fill="#6FCFBD" stroke="#6FCFBD"/>
<path d="M44.5 576.531V46.031C44.5 19.231 115.5 6.53099 151 3.53101C364.807 -17.8996 447.466 81.3864 450.473 84.9989L450.5 85.031C452.5 87.431 457.333 86.031 459.5 85.031C576.3 -21.769 746.167 -5.13569 816.5 16.531C847.3 20.931 858.333 38.3643 860 46.531V579.031C850.4 605.031 817 596.864 801.5 589.531C580.5 530.031 461.5 643.031 457.5 647.031C454.3 650.231 450.167 648.364 448.5 647.031C338.5 544.631 165.667 568.364 93 593.031C88.5 595.364 76.4 599.531 64 597.531C51.6 595.531 45.8333 582.698 44.5 576.531Z" fill="#FDFDFD" stroke="#FDFDFD"/>
<path d="M373.5 250.031H126.5C116 255.031 116.5 269.531 126.5 274.031H374.5C386.5 267.031 383.5 253.531 373.5 250.031Z" fill="#D8CFC5" stroke="#D8CFC5"/>
<path d="M373.189 423.531H126.189C115.689 428.531 116.189 443.031 126.189 447.531H374.189C386.189 440.531 383.189 427.031 373.189 423.531Z" fill="#D8CFC5" stroke="#D8CFC5"/>
<path d="M373.189 336.531H126.189C115.689 341.531 116.189 356.031 126.189 360.531H374.189C386.189 353.531 383.189 340.031 373.189 336.531Z" fill="#D8CFC5" stroke="#D8CFC5"/>
<path d="M451 649.531V85.5312C453 87.5312 456.833 86.3646 458.5 85.5312V649.531H451Z" fill="#F7EFE6" stroke="#F7EFE6"/>
<path d="M149.5 179.682V3.18158C187.1 -1.61842 241.833 1.18158 264.5 3.18158V179.682C261.3 188.482 252.167 186.682 248 184.682C237.167 176.182 214.7 158.582 211.5 156.182C208.3 153.782 204.167 155.182 202.5 156.182L172.5 179.682C157.7 191.282 151 184.515 149.5 179.682Z" fill="#7FD7C5" stroke="#7FD7C5"/>
</svg>
