<svg width="311" height="459" viewBox="0 0 311 459" fill="none" xmlns="http://www.w3.org/2000/svg">
<path d="M15.5621 455.435C2.36209 462.635 0.0620928 452.435 0.562093 446.435L6.88209 406.935L20.5621 321.435L175.074 79.9346L192.349 52.9346L215.062 17.4345C233.862 -6.56547 260.562 0.101198 271.562 6.43453L292.562 21.9345C314.962 40.7345 311.229 67.1012 306.562 77.9345L281.883 116.935L265.062 143.517L113.562 382.935L45.9759 432.935L15.5621 455.435Z" fill="#4BB9A3" stroke="#4BB9A3"/>
<path d="M45.5621 433.435C35.1621 416.635 15.5621 408.768 7.06213 406.935L0.562134 447.935C0.562134 460.335 9.56213 458.768 14.0621 456.435L45.5621 433.435Z" fill="#615E5A" stroke="#615E5A"/>
<path d="M20.2086 321.081C21.3173 319.972 24.5806 318.111 29.152 318.942L29.151 318.943C31.7682 319.217 37.524 321.033 46.2164 325.528C54.9695 330.055 66.7409 337.319 81.3551 348.529C85.881 351.549 92.0356 356.559 97.2291 361.057C99.8311 363.31 102.198 365.439 104.005 367.132C104.908 367.978 105.673 368.718 106.259 369.31C106.836 369.892 107.264 370.357 107.469 370.645C108.141 371.584 109.871 373.586 111.228 375.88C112.587 378.176 113.698 380.953 113.047 383.556L113.004 383.73L112.859 383.837L45.859 433.337L45.3707 433.698L45.11 433.148C42.1751 426.953 30.4973 412.883 7.43713 406.919L6.99963 406.806L7.06799 406.359L20.068 321.359L20.0924 321.197L20.2086 321.081Z" fill="#FEE3BA" stroke="#FEE3BA"/>
<path d="M232.062 113.935C202.862 91.9348 181.667 82.1014 175 79.9348L191.562 53.9348C195.162 52.7348 201.062 55.1014 203.562 56.4348C206.395 58.1014 217.662 65.1348 240.062 79.9348C262.462 94.7348 278 111.5 282.5 117.5L265.179 144.224C265.155 144.351 265.093 144.442 265 144.5L265.179 144.224C265.511 142.522 259.23 134.404 232.062 113.935Z" fill="#FEFEFE"/>
<path d="M175 79.9348C181.667 82.1014 202.862 91.9348 232.062 113.935C261.262 135.935 266.333 143.667 265 144.5L282.5 117.5C278 111.5 262.462 94.7348 240.062 79.9348C217.662 65.1348 206.395 58.1014 203.562 56.4348C201.062 55.1014 195.162 52.7348 191.562 53.9348L175 79.9348Z" stroke="#FEFEFE"/>
</svg>
