<svg width="81" height="79" viewBox="0 0 81 79" fill="none" xmlns="http://www.w3.org/2000/svg">
<path d="M14.7072 5.47336C23.2599 -0.0219568 33.5542 -1.06014 39.716 0.946018C48.3853 3.76864 54.3952 7.80673 58.3986 12.4607C62.403 17.1158 64.3779 22.362 65.0197 27.5603C66.2711 37.6959 62.4553 47.6683 58.7199 52.865L79.9103 73.5632L80.0412 73.6902L80.0588 73.8718C80.1661 74.9457 80.0108 75.8184 79.6496 76.5114C79.2873 77.2065 78.7376 77.6816 78.1242 77.9919C76.9198 78.6011 75.4469 78.59 74.4719 78.4128L74.3244 78.3864L74.216 78.2829L53.5031 58.5564C39.2192 67.9226 26.0837 66.5274 16.4054 60.7888C6.69942 55.0335 0.454326 44.8955 0.0616978 36.946C-0.72499 21.0156 6.11413 10.995 14.7072 5.47336ZM33.051 6.9216C28.5587 7.00646 21.9535 8.40098 16.4572 12.3269C10.9362 16.2706 6.56072 22.7531 6.56072 32.9216C6.56083 43.0969 11.0676 49.5379 16.7131 53.4577C22.333 57.3598 29.059 58.7524 33.5422 58.9216H33.5607C37.682 58.9216 43.7167 57.1024 48.8254 52.9597C53.9514 48.8027 58.1539 42.2983 58.5607 32.9431C58.9687 23.5575 54.7502 17.0348 49.3537 12.8757C43.9783 8.73299 37.4206 6.9216 33.0607 6.9216H33.051Z" fill="#4EC7B0"/>
</svg>
